# xmcd
#
# Track frame offsets:
# 150
# 15142
# 31315
# 47183
# 62072
# 78828
# 94902
# 114217
# 129841
# 144144
# 159512
# 175176
# 191362
# 212893
# 225625
# 241863
# 256474
# 269447
# 290334
# 304112
# 317005
#
# Disc length: 4418 seconds
#
#
# Revision: 0
# Processed by: cddbd v1.5.2PL0 Copyright (c) Steve Scherf et al.
# Submitted via: FreeRIP 2.941 
#
DISCID=0e114015
DTITLE=Jão Neto and Frederico - Acústico ao Vivo
DYEAR=2007
DGENRE=Country
TTITLE0=Só de Você
TTITLE1=Se Quiser
TTITLE2=Páginas de Amigos
TTITLE3=Bebo e dou Trabai
TTITLE4=Você me Fez te Amar
TTITLE5=Pra Dizer Adeus
TTITLE6=Paz na Cama - Fogo de Amor - Entre Tapas e Beijos
TTITLE7=Dona de Mim
TTITLE8=Filme de Amor
TTITLE9=Pega Fogo Cabaré
TTITLE10=Vida de Universitário
TTITLE11=Pura Magia
TTITLE12=Fio de Cabelo - Amargurado - Telefone Mudo
TTITLE13=Pagode em Brasília
TTITLE14=Bate e Bota no Chão
TTITLE15=Que Pena Amor
TTITLE16=Meu Anjo
TTITLE17=Galopeira - Vá Pro Inferno com Seu Amor - Pedaço de Poema
TTITLE18=O Fora
TTITLE19=Por Favor Reza Pra Nós
TTITLE20=Marcando Toca
EXTD=
EXTT0=
EXTT1=
EXTT2=
EXTT3=
EXTT4=
EXTT5=
EXTT6=
EXTT7=
EXTT8=
EXTT9=
EXTT10=
EXTT11=
EXTT12=
EXTT13=
EXTT14=
EXTT15=
EXTT16=
EXTT17=
EXTT18=
EXTT19=
EXTT20=
PLAYORDER=
